<svg width="134" height="64" viewBox="0 0 134 64" fill="none" xmlns="http://www.w3.org/2000/svg">
<g clip-path="url(#clip0_2504_3986)">
<path d="M8.18958 1.02396V20.3965C8.18958 21.2057 9.08997 21.7009 9.79302 21.2782L25.8891 11.6161C26.5551 11.2175 26.5551 10.2634 25.8891 9.8648L9.79302 0.15437C9.08997 -0.268348 8.18958 0.226836 8.18958 1.03604V1.02396Z" fill="url(#paint0_linear_2504_3986)"/>
<path d="M25.0566 16.8591C25.6142 16.5279 26.3228 16.9162 26.3228 17.5557V44.8606C26.3228 46.1282 26.1718 47.3501 25.893 48.5264L8.27089 37.9173L0.406578 33.1667C-0.0929283 32.8697 -0.139394 32.1503 0.336879 31.8077L2.43945 30.5287C2.43945 30.5287 2.46268 30.5173 2.4743 30.5058L25.0566 16.8591Z" fill="url(#paint1_linear_2504_3986)"/>
<path d="M11.5816 39.905L8.28251 37.918V59.7756L8.24767 59.8327V63.0303C8.24767 63.7954 9.09566 64.2636 9.7578 63.8639L18.3539 58.6907C18.4585 58.6222 18.563 58.5651 18.6676 58.4966C21.2464 56.8978 23.349 54.6138 24.6849 51.8959C25.2192 50.8338 25.6258 49.7033 25.9046 48.527L11.5816 39.905V39.905Z" fill="url(#paint2_linear_2504_3986)"/>
<path d="M41.9236 23.9512C41.9236 23.1518 42.156 22.5466 42.609 22.1583C43.0621 21.77 43.8055 21.5645 44.8161 21.5645C45.8268 21.5645 46.5702 21.77 47.0349 22.1697C47.4995 22.5694 47.7318 23.1632 47.7318 23.9512C47.7318 25.5271 46.7561 26.3151 44.8161 26.3151C42.8762 26.3151 41.9236 25.5271 41.9236 23.9512ZM47.5228 43.365H42.063V27.8225H47.5228V43.365Z" fill="black"/>
<path d="M60.5912 43.3654V34.8804C60.5912 33.8412 60.4402 33.0646 60.1382 32.5393C59.8362 32.014 59.3483 31.7513 58.6745 31.7513C57.7568 31.7513 57.0831 32.1168 56.6765 32.8362C56.2699 33.5557 56.0608 34.8004 56.0608 36.5591V43.3654H50.6011V27.8229H54.7133L55.3987 29.7414H55.7239C56.1886 29.0106 56.8391 28.4624 57.6523 28.097C58.4654 27.7315 59.418 27.5488 60.4983 27.5488C62.2524 27.5488 63.6115 28.0513 64.5757 29.0448C65.5398 30.0384 66.0277 31.443 66.0277 33.2588V43.3654H60.568H60.5912Z" fill="black"/>
<path d="M81.2684 38.5915C81.2684 40.2588 80.6876 41.515 79.5376 42.3601C78.3876 43.2052 76.7264 43.6391 74.5658 43.6391C73.3925 43.6391 72.3703 43.582 71.5106 43.4564C70.651 43.3308 69.7566 43.1024 68.8621 42.7826V38.4888C69.7101 38.8542 70.6394 39.1511 71.65 39.3909C72.6607 39.6308 73.5551 39.745 74.3567 39.745C75.5415 39.745 76.134 39.4823 76.134 38.9456C76.134 38.6715 75.9713 38.4317 75.6345 38.2147C75.2976 37.9977 74.3451 37.5866 72.7536 36.9585C71.3016 36.3761 70.2909 35.7023 69.7101 34.96C69.1293 34.2177 68.8389 33.2699 68.8389 32.1279C68.8389 30.6776 69.4081 29.5584 70.5465 28.7476C71.6849 27.9368 73.288 27.5371 75.3673 27.5371C76.4128 27.5371 77.3886 27.6513 78.3063 27.8683C79.224 28.0967 80.1765 28.4164 81.1639 28.8504L79.6886 32.3106C78.9684 31.9909 78.1901 31.7168 77.3886 31.4884C76.5754 31.26 75.9133 31.1572 75.4021 31.1572C74.5077 31.1572 74.0663 31.3742 74.0663 31.7967C74.0663 32.0594 74.2173 32.2878 74.5309 32.4705C74.8446 32.6532 75.739 33.0415 77.2375 33.6125C78.3411 34.0579 79.1659 34.5032 79.7118 34.9258C80.2578 35.3483 80.6528 35.8622 80.9083 36.4446C81.1639 37.027 81.2917 37.7351 81.2917 38.5687L81.2684 38.5915Z" fill="black"/>
<path d="M83.4639 23.9512C83.4639 23.1518 83.6963 22.5466 84.1493 22.1583C84.6024 21.77 85.3458 21.5645 86.3564 21.5645C87.3671 21.5645 88.1105 21.77 88.5752 22.1697C89.0398 22.5694 89.2722 23.1632 89.2722 23.9512C89.2722 25.5271 88.2964 26.3151 86.3564 26.3151C84.4165 26.3151 83.4639 25.5271 83.4639 23.9512ZM89.0631 43.365H83.6033V27.8225H89.0631V43.365Z" fill="black"/>
<path d="M99.9012 39.4022C100.633 39.4022 101.516 39.2194 102.538 38.8654V42.771C101.806 43.0794 101.098 43.3078 100.436 43.4334C99.7734 43.5704 98.9951 43.6275 98.1006 43.6275C96.2652 43.6275 94.9526 43.1821 94.1394 42.3028C93.3263 41.4235 92.9313 40.0645 92.9313 38.2373V31.8308H91.0146V29.6496L93.4425 27.9594L94.848 24.6934H98.4259V27.811H102.306V31.8308H98.4259V37.8833C98.4259 38.8883 98.9138 39.3907 99.9012 39.3907V39.4022Z" fill="black"/>
<path d="M112.226 43.6394C109.589 43.6394 107.545 42.9542 106.093 41.5724C104.641 40.1906 103.909 38.2378 103.909 35.6912C103.909 33.1446 104.583 31.0547 105.93 29.6501C107.278 28.2454 109.206 27.5488 111.703 27.5488C114.201 27.5488 115.92 28.1541 117.221 29.376C118.522 30.5979 119.173 32.3566 119.173 34.652V37.0387H109.415C109.45 37.9067 109.775 38.5918 110.379 39.0829C110.983 39.574 111.82 39.8252 112.865 39.8252C113.829 39.8252 114.7 39.7338 115.514 39.5625C116.315 39.3798 117.186 39.0829 118.127 38.6489V42.5089C117.268 42.9428 116.385 43.2397 115.479 43.3996C114.573 43.5595 113.481 43.6508 112.215 43.6508L112.226 43.6394ZM111.901 31.1918C111.262 31.1918 110.716 31.3859 110.286 31.7856C109.856 32.1853 109.601 32.8134 109.52 33.6585H114.213C114.189 32.9047 113.98 32.3109 113.562 31.8655C113.144 31.4202 112.598 31.1918 111.889 31.1918H111.901Z" fill="black"/>
<path d="M133.763 38.5915C133.763 40.2588 133.182 41.515 132.032 42.3601C130.882 43.2052 129.221 43.6391 127.06 43.6391C125.887 43.6391 124.865 43.582 124.005 43.4564C123.146 43.3308 122.251 43.1024 121.357 42.7826V38.4888C122.205 38.8542 123.134 39.1511 124.145 39.3909C125.155 39.6308 126.05 39.745 126.851 39.745C128.036 39.745 128.629 39.4823 128.629 38.9456C128.629 38.6715 128.466 38.4317 128.129 38.2147C127.792 37.9977 126.84 37.5866 125.248 36.9585C123.796 36.3761 122.786 35.7023 122.205 34.96C121.624 34.2177 121.333 33.2699 121.333 32.1279C121.333 30.6776 121.903 29.5584 123.041 28.7476C124.179 27.9368 125.783 27.5371 127.862 27.5371C128.907 27.5371 129.883 27.6513 130.801 27.8683C131.719 28.0967 132.671 28.4164 133.658 28.8504L132.183 32.3106C131.463 31.9909 130.685 31.7168 129.883 31.4884C129.07 31.26 128.408 31.1572 127.897 31.1572C127.002 31.1572 126.561 31.3742 126.561 31.7967C126.561 32.0594 126.712 32.2878 127.026 32.4705C127.339 32.6532 128.234 33.0415 129.732 33.6125C130.836 34.0579 131.66 34.5032 132.206 34.9258C132.752 35.3483 133.147 35.8622 133.403 36.4446C133.658 37.027 133.786 37.7351 133.786 38.5687L133.763 38.5915Z" fill="black"/>
</g>
<defs>
<linearGradient id="paint0_linear_2504_3986" x1="19.463" y1="18.2105" x2="7.86332" y2="3.45509" gradientUnits="userSpaceOnUse">
<stop stop-color="#3044FF"/>
<stop offset="1" stop-color="#0095FF"/>
</linearGradient>
<linearGradient id="paint1_linear_2504_3986" x1="11.2215" y1="44.6094" x2="20.6178" y2="21.0526" gradientUnits="userSpaceOnUse">
<stop stop-color="#3044FF"/>
<stop offset="1" stop-color="#0095FF"/>
</linearGradient>
<linearGradient id="paint2_linear_2504_3986" x1="16.4256" y1="46.6542" x2="12.3906" y2="68.5139" gradientUnits="userSpaceOnUse">
<stop stop-color="#110051"/>
<stop offset="1" stop-color="#4300C5"/>
</linearGradient>
<clipPath id="clip0_2504_3986">
<rect width="133.763" height="64" fill="white"/>
</clipPath>
</defs>
</svg>
