<?xml version="1.0" encoding="UTF-8"?><svg id="Layer_1" xmlns="http://www.w3.org/2000/svg" viewBox="0 0 1280 263.49"><defs><style>.cls-1{fill:#fff;}</style></defs><g><path class="cls-1" d="M2.12,215.99c-.89-1.19-1.52-2.4-1.87-3.65-.35-1.24-.33-2.52,.09-3.82,.41-1.31,1.34-2.67,2.75-4.1l29.55-28.13c1.66-1.66,3.38-2.49,5.16-2.49,1.31,0,2.64,.35,4.01,1.07,1.36,.71,2.7,1.66,4.01,2.85,3.21,2.61,6.79,5.49,10.77,8.63,3.98,3.15,8.22,6.05,12.73,8.72,4.51,2.67,9.26,4.9,14.24,6.68,4.98,1.78,10.08,2.67,15.31,2.67,5.81,0,10.56-.65,14.24-1.96,3.68-1.3,6.59-3.03,8.73-5.16,2.13-2.13,3.59-4.66,4.36-7.57,.77-2.91,1.15-5.96,1.15-9.17,0-3.56-1.24-6.73-3.73-9.52-2.5-2.79-5.58-5.22-9.26-7.3-3.68-2.08-7.54-3.89-11.57-5.43-4.03-1.54-7.59-2.85-10.68-3.91-13.64-4.75-25.72-9.91-36.22-15.49-10.51-5.58-19.25-11.75-26.26-18.51-7-6.77-12.31-14.24-15.93-22.43-3.62-8.19-5.43-17.27-5.43-27.23,0-10.56,2.25-20.18,6.77-28.84,4.51-8.66,10.83-16.05,18.96-22.16,8.13-6.11,17.86-10.86,29.19-14.24C74.5,2.1,87.06,.41,100.82,.41c7.71,0,15.51,.8,23.41,2.4,7.89,1.6,15.49,3.89,22.79,6.85,7.3,2.97,14.12,6.5,20.47,10.59,6.35,4.09,11.72,8.57,16.11,13.44,2.37,2.73,3.56,5.34,3.56,7.83s-1.37,5.1-4.1,7.83l-26.17,27.95c-1.78,1.78-3.62,2.67-5.52,2.67-1.54,0-3.02-.45-4.45-1.34-1.43-.89-2.91-1.99-4.45-3.29-6.17-5.58-12.52-10.03-19.05-13.35-6.53-3.32-14-4.99-22.43-4.99-3.2,0-6.4,.27-9.61,.8-3.21,.53-6.08,1.48-8.64,2.85-2.55,1.37-4.62,3.15-6.23,5.34-1.6,2.2-2.4,4.9-2.4,8.1s.89,5.96,2.67,8.27c1.78,2.32,4.39,4.45,7.83,6.41,3.44,1.96,7.63,3.86,12.55,5.7,4.92,1.84,10.47,3.77,16.65,5.79,12.1,4.04,23.17,8.25,33.2,12.64,10.03,4.39,18.63,9.59,25.81,15.58,7.18,5.99,12.75,13.15,16.73,21.45,3.98,8.31,5.97,18.4,5.97,30.26,0,12.46-2.46,23.8-7.38,34-4.93,10.21-11.75,18.9-20.47,26.08-8.73,7.18-19.03,12.73-30.89,16.64-11.87,3.91-24.8,5.88-38.81,5.88-8.78,0-17.5-1.16-26.17-3.47-8.66-2.31-17-5.43-25.01-9.35-8.01-3.91-15.55-8.48-22.61-13.71-7.06-5.22-13.44-10.8-19.14-16.73-1.07-1.19-2.04-2.37-2.93-3.56Z"/><path class="cls-1" d="M212.47,13.41c0-5.1,2.5-7.65,7.48-7.65h51.1c4.98,0,7.48,2.55,7.48,7.65V252.13c0,4.98-2.5,7.48-7.48,7.48h-51.1c-4.98,0-7.48-2.49-7.48-7.48V13.41Z"/><path class="cls-1" d="M372.4,114.7l-14.42,137.43c-.24,2.49-.92,4.36-2.05,5.6-1.13,1.25-2.93,1.87-5.43,1.87h-48.59c-2.5,0-4.42-.62-5.79-1.87-1.37-1.24-1.93-3.12-1.7-5.6L319.88,13.41c.24-2.49,.92-4.39,2.05-5.7,1.13-1.3,2.93-1.96,5.42-1.96h59.82c2.49,0,4.15,.62,4.99,1.87,.83,1.25,1.66,3.18,2.49,5.79l46.64,153.45L487.93,13.41c.83-2.61,1.65-4.54,2.49-5.79,.83-1.24,2.49-1.87,4.99-1.87h59.81c2.5,0,4.3,.65,5.43,1.96,1.13,1.31,1.81,3.21,2.05,5.7l25.45,238.72c.24,2.49-.33,4.36-1.69,5.6-1.36,1.25-3.29,1.87-5.79,1.87h-48.6c-2.49,0-4.3-.62-5.42-1.87-1.13-1.24-1.81-3.12-2.05-5.6l-13.89-134.05-39.87,133.69c-.95,3.09-1.96,5.16-3.02,6.23-1.07,1.07-2.85,1.6-5.34,1.6h-42.37c-2.49,0-4.3-.54-5.43-1.6-1.13-1.07-2.11-3.14-2.93-6.23l-39.34-137.07Z"/><path class="cls-1" d="M603.46,13.41c0-2.49,.71-4.39,2.13-5.7,1.43-1.3,3.14-1.96,5.16-1.96h109.66c11.74,0,22.49,2.37,32.22,7.12,9.74,4.75,18.07,11.01,25.01,18.78,6.95,7.77,12.31,16.65,16.11,26.62,3.8,9.97,5.7,20.18,5.7,30.62s-1.87,20.38-5.6,30.18c-3.74,9.79-9.02,18.54-15.85,26.26-6.82,7.72-15.01,13.91-24.56,18.6-9.55,4.69-20.15,7.03-31.78,7.03h-52.33v81.18c0,4.98-2.61,7.48-7.84,7.48h-50.73c-4.87,0-7.29-2.49-7.29-7.48V13.41Zm65.87,46.64v56.96h36.85c4.15,0,7.86-.8,11.13-2.4,3.26-1.6,5.99-3.74,8.18-6.41,2.2-2.67,3.89-5.72,5.08-9.16,1.18-3.44,1.78-6.94,1.78-10.5s-.6-6.85-1.78-10.24c-1.19-3.38-2.91-6.44-5.16-9.17-2.26-2.73-4.99-4.92-8.19-6.59-3.21-1.66-6.88-2.49-11.04-2.49h-36.85Z"/><path class="cls-1" d="M810.67,13.41c0-1.89,.59-3.65,1.78-5.25,1.18-1.6,3.02-2.4,5.51-2.4h113.39c12.11,0,23.11,2.43,33.02,7.3,9.91,4.87,18.43,11.28,25.55,19.23,7.12,7.95,12.63,17.06,16.56,27.32,3.91,10.27,5.87,20.74,5.87,31.42,0,6.76-1.01,13.47-3.02,20.11-2.02,6.65-4.87,13-8.55,19.05-3.68,6.05-8.07,11.72-13.17,17-5.1,5.28-10.74,9.88-16.91,13.8l48.95,91.15c.95,1.66,1.07,3.32,.35,4.98-.71,1.67-2.25,2.49-4.62,2.49h-61.6c-2.38,0-4.16-.5-5.34-1.51-1.19-1.01-2.49-2.88-3.91-5.61l-40.41-77.26h-27.59v76.9c0,4.98-2.5,7.48-7.48,7.48h-51.09c-4.87,0-7.29-2.49-7.29-7.48V13.41Zm65.87,45.22v61.95h37.91c4.51,0,8.64-.89,12.38-2.67,3.73-1.78,6.94-4.1,9.61-6.94,2.67-2.85,4.74-6.11,6.23-9.79,1.48-3.68,2.23-7.48,2.23-11.39s-.74-7.53-2.23-11.21c-1.49-3.68-3.59-7-6.32-9.97-2.73-2.96-5.93-5.37-9.61-7.21-3.68-1.84-7.77-2.76-12.29-2.76h-37.91Z"/><path class="cls-1" d="M1149.04,1.59c-72.33,0-130.97,58.63-130.97,130.96s58.64,130.94,130.97,130.94,130.96-58.62,130.96-130.94S1221.37,1.59,1149.04,1.59Zm75.77,143.43l-9.89,3.07c-13.06,5.76-22.48,22.08-20.94,36.27l2.28,10.1c.79,7.31-2.5,9.41-5.89,11.37-3.38,1.95-6.86,3.76-12.79-.58l-7.61-7.03c-11.52-8.43-30.36-8.43-41.88,0l-7.61,7.03c-5.83,4.27-9.24,2.5-12.62,.67-3.5-1.89-6.86-4.03-6.06-11.46l2.28-10.1c1.54-14.19-7.88-30.51-20.94-36.27l-9.89-3.07c-6.72-2.97-6.9-6.87-6.9-10.78s.17-7.82,6.9-10.78l9.89-3.07c13.06-5.76,22.48-22.08,20.94-36.27l-2.28-10.11c-.79-7.31,2.5-9.41,5.89-11.36,3.39-1.95,6.86-3.76,12.79,.58l7.61,7.03c11.52,8.43,30.36,8.43,41.88,0l7.61-7.03c5.93-4.34,9.4-2.54,12.79-.58,3.39,1.95,6.68,4.06,5.89,11.36l-2.28,10.11c-1.54,14.19,7.88,30.51,20.94,36.27l9.89,3.07c6.73,2.97,6.9,6.87,6.9,10.78s-.17,7.82-6.9,10.78Z"/></g><path class="cls-1" d="M1270.91,4.01c2.67,2.67,4.01,5.9,4.01,9.67s-1.37,7.16-4.1,9.82c-2.66,2.57-5.86,3.86-9.58,3.86s-7.09-1.32-9.73-3.96c-2.64-2.64-3.96-5.88-3.96-9.73s1.42-7.32,4.27-9.97c2.67-2.47,5.81-3.71,9.41-3.71s7,1.34,9.67,4.01Zm-9.67-1.67c-3.14,0-5.83,1.14-8.04,3.42-2.18,2.23-3.27,4.87-3.27,7.93s1.11,5.86,3.32,8.08c2.2,2.22,4.87,3.32,7.98,3.32s5.76-1.11,7.97-3.34c2.2-2.24,3.31-4.93,3.31-8.06s-1.1-5.69-3.29-7.93c-2.22-2.28-4.88-3.42-7.98-3.42Zm-2.02,13.59v5.37h-3.97V6.13c.94,0,2.35,0,4.22,0s2.92,.02,3.13,.03c1.2,.09,2.2,.35,2.99,.78,1.35,.74,2.02,1.95,2.02,3.62,0,1.27-.36,2.2-1.07,2.77-.71,.57-1.59,.91-2.63,1.02,.95,.2,1.67,.49,2.15,.87,.89,.72,1.34,1.85,1.34,3.4v1.36c0,.15,0,.3,.03,.45,.02,.15,.05,.3,.1,.44l.13,.43h-3.79c-.12-.48-.2-1.18-.24-2.1-.04-.92-.12-1.53-.24-1.86-.2-.53-.57-.9-1.11-1.11-.3-.12-.75-.2-1.36-.24l-.87-.06h-.84Zm1.54-2.73c.93,0,1.65-.19,2.17-.56s.78-.97,.78-1.8-.41-1.41-1.23-1.73c-.54-.21-1.31-.31-2.3-.31h-.96v4.4h1.54Z"/></svg>